<svg width="225" height="39" viewBox="0 0 225 39" fill="none" xmlns="http://www.w3.org/2000/svg">
<path d="M20.759 18.001V18.901C20.759 19.853 20.405 20.172 19.547 20.172H15.654C14.745 20.172 14.391 19.854 14.391 18.901V18.53C14.391 16.571 13.381 15.724 10.503 15.724C7.625 15.724 6.613 16.571 6.613 18.53V29.065C6.613 31.024 7.624 31.924 10.503 31.924C13.382 31.924 14.391 31.024 14.391 29.065V28.271C14.391 27.318 14.745 26.946 15.654 26.946H19.543C20.401 26.946 20.755 27.317 20.755 28.271V29.595C20.755 34.36 17.724 37.431 10.355 37.431C2.93 37.431 0 34.36 0 29.595V18.001C0 13.289 2.97999 10.218 10.4 10.218C17.78 10.218 20.759 13.289 20.759 18.001Z" fill="white"/>
<path d="M24.854 18.001C24.854 13.289 28.339 10.218 35.764 10.218C43.189 10.218 46.674 13.289 46.674 18.001V29.595C46.674 34.36 43.189 37.431 35.764 37.431C28.339 37.431 24.854 34.36 24.854 29.595V18.001ZM40.054 18.584C40.054 16.625 38.589 15.725 35.76 15.725C32.931 15.725 31.467 16.625 31.467 18.584V29.013C31.467 31.024 32.931 31.925 35.76 31.925C38.589 31.925 40.054 31.025 40.054 29.013V18.584Z" fill="white"/>
<path d="M66.982 34.466C64.7505 36.3918 61.8976 37.4453 58.95 37.432C53.95 37.432 51.627 34.413 51.627 29.701V17.949C51.627 13.237 53.95 10.218 58.95 10.218C61.8319 10.2122 64.6232 11.2248 66.831 13.077V1.37701C66.831 0.423007 67.131 0 68.043 0H72.235C73.093 0 73.447 0.423007 73.447 1.37701V35.627C73.447 36.579 73.093 37.004 72.235 37.004H68.345C67.436 37.004 67.183 36.579 67.082 35.627L66.982 34.466ZM58.243 28.589C58.243 30.018 58.643 31.395 61.021 31.395C63.1676 31.2241 65.2032 30.3708 66.83 28.96V18.689C65.2034 17.2778 63.1677 16.4245 61.021 16.254C58.647 16.254 58.243 17.631 58.243 19.006V28.589Z" fill="white"/>
<path d="M99.412 24.14C99.412 24.987 99.112 25.358 98.3 25.358H85.37V29.275C85.37 31.128 86.329 32.186 89.309 32.186C92.289 32.186 93.248 31.128 93.248 29.275V29.01C93.248 28.11 93.602 27.686 94.511 27.686H98.047C98.905 27.686 99.309 28.109 99.309 29.01V29.592C99.309 34.357 96.683 37.428 89.258 37.428C81.833 37.428 78.904 34.357 78.904 29.592V18.001C78.904 13.289 81.884 10.218 89.304 10.218C96.678 10.218 99.404 13.289 99.404 18.001L99.412 24.14ZM85.37 20.698H93.249V18.372C93.249 16.519 92.138 15.46 89.31 15.46C86.43 15.46 85.371 16.519 85.371 18.372L85.37 20.698Z" fill="white"/>
<path d="M217.841 24.789C217.655 24.7885 217.474 24.7332 217.32 24.63L209.042 19.139C208.683 18.9009 208.39 18.5776 208.187 18.198C207.984 17.8184 207.879 17.3944 207.88 16.964V12.026C207.879 11.7291 207.959 11.4374 208.109 11.1816C208.26 10.9258 208.477 10.7153 208.737 10.572C208.996 10.4292 209.288 10.3599 209.584 10.3715C209.879 10.3831 210.165 10.4753 210.412 10.638L222.892 18.822C223.326 19.1093 223.677 19.5042 223.913 19.968C224.022 20.1798 224.048 20.4242 223.988 20.6545C223.928 20.8848 223.785 21.0847 223.586 21.216L218.359 24.634C218.205 24.7352 218.025 24.7891 217.841 24.789V24.789ZM210.085 17.539L217.846 22.684L221.573 20.245L209.786 12.515V16.965C209.785 17.0773 209.813 17.1881 209.865 17.2875C209.917 17.3868 209.993 17.4719 210.086 17.535L210.085 17.539Z" fill="white"/>
<path d="M209.518 37.279C209.245 37.2787 208.977 37.2099 208.738 37.079C208.477 36.9359 208.26 36.7253 208.109 36.4693C207.958 36.2133 207.878 35.9213 207.879 35.624V30.69C207.878 30.2593 207.984 29.8351 208.187 29.4555C208.39 29.0759 208.685 28.7527 209.044 28.515L209.971 27.901C210.03 27.8607 210.093 27.8271 210.16 27.801L222.547 19.601C222.658 19.5272 222.784 19.4779 222.916 19.4563C223.048 19.4346 223.183 19.4412 223.312 19.4755C223.441 19.5098 223.562 19.571 223.665 19.6552C223.769 19.7394 223.854 19.8447 223.914 19.964C224.132 20.3903 224.248 20.862 224.25 21.341V26.224C224.251 26.7222 224.128 27.2128 223.893 27.6519C223.658 28.091 223.317 28.4649 222.902 28.74L210.416 37.003C210.15 37.1807 209.838 37.2767 209.518 37.279V37.279ZM210.832 29.626L210.085 30.126C209.992 30.1888 209.916 30.2737 209.864 30.3729C209.811 30.4722 209.784 30.5828 209.785 30.695V35.137L221.862 27.144C222.012 27.0447 222.135 26.9097 222.22 26.751C222.305 26.5923 222.35 26.415 222.349 26.235V22.04L211.021 29.54C210.962 29.576 210.898 29.6052 210.832 29.627V29.626Z" fill="white"/>
<path d="M111.259 24.789C111.075 24.789 110.895 24.7351 110.741 24.634L105.516 21.216C105.318 21.0851 105.175 20.8858 105.114 20.6561C105.054 20.4265 105.08 20.1826 105.188 19.971C105.421 19.5062 105.772 19.1107 106.206 18.824L118.69 10.639C118.937 10.4763 119.223 10.3842 119.518 10.3725C119.814 10.3609 120.106 10.4302 120.365 10.573C120.625 10.7164 120.841 10.927 120.992 11.1828C121.143 11.4386 121.222 11.7302 121.221 12.027V16.966C121.222 17.3962 121.116 17.8199 120.914 18.1994C120.711 18.5789 120.418 18.9024 120.06 19.141V19.141L111.782 24.632C111.627 24.7346 111.445 24.7892 111.259 24.789V24.789ZM107.531 20.245L111.256 22.681L119.015 17.536C119.108 17.473 119.184 17.388 119.236 17.2885C119.289 17.1891 119.316 17.0784 119.315 16.966V12.516L107.531 20.245Z" fill="white"/>
<path d="M119.582 37.2781C119.262 37.2792 118.949 37.1852 118.682 37.0081L106.193 28.7451C105.778 28.4697 105.438 28.0958 105.203 27.6567C104.968 27.2176 104.846 26.727 104.847 26.2291V21.346C104.85 20.8671 104.965 20.3954 105.183 19.969C105.243 19.8496 105.328 19.7443 105.431 19.66C105.535 19.5757 105.655 19.5144 105.784 19.4801C105.913 19.4458 106.048 19.4393 106.18 19.461C106.312 19.4827 106.438 19.5321 106.549 19.6061L118.94 27.8061C119.005 27.8299 119.068 27.8615 119.126 27.9L120.054 28.5161C120.412 28.7538 120.706 29.0767 120.909 29.456C121.112 29.8352 121.218 30.2589 121.217 30.6891V35.623C121.218 35.9202 121.138 36.2121 120.987 36.4681C120.836 36.7241 120.619 36.9348 120.359 37.0781C120.121 37.2083 119.854 37.277 119.582 37.2781ZM106.754 22.0351V26.2301C106.753 26.41 106.797 26.5873 106.882 26.746C106.967 26.9046 107.09 27.0397 107.24 27.1391L119.318 35.1321V30.6901C119.319 30.5778 119.292 30.4672 119.239 30.368C119.187 30.2687 119.111 30.1839 119.018 30.121L118.267 29.621C118.202 29.5976 118.14 29.5668 118.082 29.5291L106.754 22.0351Z" fill="white"/>
<path d="M137.902 38.393C128.558 38.393 126.602 33.609 126.602 29.593V18.002C126.602 14.013 128.573 9.258 137.957 9.258C147.3 9.258 149.257 14.013 149.257 18.002V18.902C149.299 19.199 149.273 19.5017 149.181 19.787C149.088 20.0724 148.931 20.3327 148.723 20.5482C148.514 20.7636 148.258 20.9284 147.976 21.0299C147.694 21.1315 147.392 21.1671 147.094 21.134H143.205C142.904 21.1713 142.598 21.1391 142.311 21.0398C142.024 20.9405 141.764 20.7769 141.55 20.5614C141.336 20.3459 141.175 20.0843 141.078 19.7966C140.981 19.509 140.951 19.2029 140.991 18.902V18.531C140.991 17.583 140.991 16.688 138.052 16.688C135.113 16.688 135.115 17.588 135.115 18.531V29.067C135.115 30.001 135.115 30.967 138.052 30.967C140.989 30.967 140.991 30.003 140.991 29.067V28.273C140.951 27.9696 140.98 27.6611 141.076 27.3706C141.172 27.08 141.333 26.8149 141.546 26.5951C141.759 26.3753 142.018 26.2064 142.306 26.1011C142.593 25.9958 142.9 25.9568 143.205 25.987H147.094C147.395 25.9606 147.699 26.0026 147.982 26.11C148.265 26.2174 148.52 26.3874 148.728 26.6072C148.936 26.8271 149.092 27.0911 149.183 27.3795C149.275 27.668 149.3 27.9734 149.257 28.273V29.597C149.258 33.609 147.287 38.393 137.902 38.393ZM137.953 11.181C131.591 11.181 128.5 13.411 128.5 18.002V29.596C128.5 34.222 131.575 36.47 137.9 36.47C144.262 36.47 147.353 34.223 147.353 29.596V28.272C147.357 28.1524 147.346 28.0327 147.319 27.916C147.291 27.916 147.219 27.909 147.093 27.909H143.204C143.103 27.9047 143.002 27.9145 142.904 27.938C142.91 27.962 142.888 28.066 142.888 28.272V29.066C142.888 32.489 140.125 32.886 138.047 32.886C135.969 32.886 133.207 32.486 133.207 29.066V18.531C133.207 15.157 135.97 14.765 138.047 14.765C140.124 14.765 142.888 15.157 142.888 18.531V18.902C142.885 19.0026 142.894 19.1032 142.913 19.202C142.939 19.193 143.037 19.208 143.2 19.208H147.089C147.174 19.2098 147.258 19.2034 147.342 19.189C147.336 19.155 147.349 19.061 147.349 18.897V17.997C147.351 13.411 144.28 11.181 137.951 11.181H137.953Z" fill="white"/>
<path d="M163.311 38.393C155.774 38.393 151.451 35.186 151.451 29.593V18.002C151.451 12.446 155.774 9.258 163.311 9.258C170.848 9.258 175.172 12.446 175.172 18.002V29.596C175.172 35.186 170.849 38.393 163.311 38.393ZM163.311 11.181C158.769 11.181 153.353 12.364 153.353 18.002V29.596C153.353 35.278 158.768 36.47 163.311 36.47C167.854 36.47 173.27 35.278 173.27 29.596V18.002C173.27 12.363 167.855 11.181 163.311 11.181V11.181ZM163.311 32.886C158.977 32.886 158.067 30.779 158.067 29.013V18.584C158.067 16.843 158.976 14.764 163.311 14.764C167.646 14.764 168.556 16.843 168.556 18.584V29.013C168.556 30.779 167.646 32.886 163.311 32.886V32.886ZM163.311 16.686C159.97 16.686 159.97 17.967 159.97 18.586V29.015C159.97 29.649 159.97 30.967 163.311 30.967C166.652 30.967 166.653 29.649 166.653 29.015V18.584C166.653 18.016 166.653 16.687 163.311 16.687V16.686Z" fill="white"/>
<path d="M200.287 38.18H196.196C195.885 38.2068 195.573 38.1641 195.281 38.055C194.989 37.9459 194.725 37.7732 194.508 37.5493C194.291 37.3254 194.126 37.0561 194.026 36.7608C193.926 36.4655 193.894 36.1516 193.93 35.842V19.273C193.93 17.8 193.722 17.429 192.154 17.429C190.362 17.5432 188.648 18.2066 187.246 19.329V35.846C187.246 37.879 185.922 38.184 185.133 38.184H180.94C180.632 38.2111 180.321 38.1681 180.032 38.0583C179.742 37.9485 179.481 37.7747 179.268 37.5499C179.055 37.3251 178.896 37.055 178.802 36.76C178.708 36.465 178.682 36.1525 178.726 35.846V12.125C178.689 11.8247 178.721 11.52 178.819 11.2339C178.917 10.9477 179.079 10.6874 179.292 10.4728C179.505 10.2581 179.764 10.0945 180.05 9.99448C180.335 9.8944 180.639 9.86039 180.94 9.895H184.83C185.081 9.86547 185.335 9.88622 185.578 9.95603C185.82 10.0258 186.047 10.1433 186.243 10.3016C186.44 10.4599 186.603 10.6558 186.723 10.8779C186.843 11.0999 186.918 11.3437 186.943 11.595C189.105 10.1788 191.641 9.43935 194.225 9.47101C199.175 9.47101 202.5 12.707 202.5 17.526V35.846C202.543 36.1521 202.517 36.464 202.423 36.7585C202.328 37.0529 202.169 37.3223 201.956 37.5467C201.744 37.771 201.483 37.9445 201.194 38.0541C200.905 38.1638 200.595 38.2068 200.287 38.18V38.18ZM195.887 36.224C195.988 36.2497 196.091 36.2611 196.195 36.258H200.286C200.381 36.2628 200.477 36.252 200.569 36.226C200.586 36.0987 200.595 35.9705 200.597 35.842V17.525C200.597 13.741 198.156 11.391 194.225 11.391C191.483 11.3383 188.82 12.3144 186.761 14.127C186.627 14.2413 186.465 14.3162 186.291 14.3435C186.117 14.3707 185.939 14.3492 185.777 14.2813C185.615 14.2134 185.474 14.1018 185.372 13.9589C185.269 13.816 185.208 13.6475 185.196 13.472L185.096 12.2C185.091 12.0716 185.075 11.9438 185.049 11.818C185.018 11.824 184.949 11.818 184.832 11.818H180.942C180.841 11.8144 180.74 11.8241 180.642 11.847C180.648 11.872 180.63 11.961 180.63 12.127V35.846C180.623 35.981 180.639 36.1163 180.677 36.246C180.69 36.236 180.77 36.262 180.941 36.262H185.134C185.198 36.2633 185.263 36.258 185.326 36.246C185.318 36.218 185.344 36.097 185.344 35.846V18.846C185.344 18.7014 185.376 18.5587 185.439 18.4283C185.501 18.2979 185.592 18.1833 185.705 18.093C187.517 16.5535 189.78 15.6442 192.154 15.502C195.414 15.502 195.832 17.515 195.832 19.268V35.846C195.822 35.9757 195.84 36.1059 195.885 36.228L195.887 36.224Z" fill="white"/>
</svg>
