<svg width="32" height="32" viewBox="0 0 32 32" fill="none" xmlns="http://www.w3.org/2000/svg">
<path d="M23.6446 20.9336C23.7103 21.1638 23.7432 21.3939 23.7104 21.6241C24.8283 22.0844 25.453 22.5447 25.4201 22.9064C25.4201 22.9393 25.4201 22.9393 25.4201 22.9393C25.4201 22.9722 25.3873 23.0051 25.3873 23.038C25.2557 23.2352 24.8941 23.3996 24.3351 23.4983C24.2036 23.5312 24.1049 23.5312 23.9734 23.564C23.6117 23.5969 23.2171 23.6298 22.7239 23.6627C22.5924 23.6627 22.4938 23.6627 22.3622 23.6627H22.2965C22.1978 23.6627 22.0992 23.6627 21.9677 23.6627C21.7375 23.6627 21.4745 23.6627 21.2114 23.6627C19.5016 23.6298 17.3972 23.3996 15.1285 23.0708C13.2872 22.7749 11.5445 22.4132 10.0977 22.0515C9.73603 21.9529 9.37434 21.8542 9.04553 21.7556C6.711 21.0651 5.26425 20.3417 5.36289 19.7828C5.42865 19.3224 6.64524 19.0594 8.51944 19.0265C8.55232 18.895 8.5852 18.7635 8.61808 18.6319C7.07269 18.5004 5.65882 18.4675 4.47511 18.4675C3.2914 18.4675 2.30498 18.5333 1.54872 18.6319C1.45008 18.6648 1.35144 18.6648 1.25279 18.6977C1.15415 18.7306 1.05551 18.7306 0.989749 18.7635C0.891106 18.7963 0.825345 18.7963 0.759583 18.8292C0.299253 18.9607 0.0362065 19.158 0.00332577 19.3882C-0.128197 20.3417 3.65309 21.7885 9.24282 23.0051C9.60451 23.0708 9.99908 23.1695 10.3608 23.2352C12.0048 23.564 13.7804 23.8929 15.6217 24.1888C15.9176 24.2217 16.2135 24.2874 16.4766 24.3203C16.7725 24.3532 17.0356 24.4189 17.3315 24.4518C17.6274 24.4847 17.9233 24.5505 18.2193 24.5834C18.4823 24.6162 18.7454 24.6491 19.0084 24.682C19.2714 24.7149 19.5674 24.7478 19.8304 24.7806C20.0606 24.8135 20.2908 24.8464 20.5209 24.8464C20.9155 24.8793 21.2772 24.9122 21.6717 24.9779C23.9076 25.2081 25.8805 25.3067 27.5245 25.3067C27.8533 25.3067 28.1821 25.3067 28.5109 25.3067C28.6425 25.3067 28.8069 25.3067 28.9384 25.2738C30.155 25.2081 31.0756 25.0766 31.5689 24.8464C31.6675 24.8135 31.7333 24.7478 31.799 24.7149C31.8319 24.682 31.8648 24.6491 31.8977 24.6162C31.9305 24.5834 31.9634 24.5505 31.9634 24.5176C31.9963 24.4847 31.9963 24.4518 31.9963 24.4189C32.1278 23.4654 28.7411 22.1502 23.6446 20.9336Z" fill="black"/>
<path d="M24.9894 13.2066C25.8974 13.2066 26.6334 12.4705 26.6334 11.5626C26.6334 10.6546 25.8974 9.91852 24.9894 9.91852C24.0814 9.91852 23.3453 10.6546 23.3453 11.5626C23.3453 12.4705 24.0814 13.2066 24.9894 13.2066Z" fill="black"/>
<path fill-rule="evenodd" clip-rule="evenodd" d="M18.3766 13.8491C19.1043 14.9275 19.957 16.0093 20.8421 16.98C22.0325 18.2824 22.6867 19.9705 22.6875 21.7305C22.6875 22.229 22.6357 22.7156 22.5371 23.1853C22.2424 23.1666 21.9543 23.148 21.6727 23.1294C21.7766 22.6799 21.8315 22.212 21.8315 21.7313C21.8315 20.1843 21.256 18.7023 20.2101 17.5563C19.3874 16.655 18.6058 15.657 17.9088 14.6556C18.2945 15.4808 18.7092 16.3001 19.1514 17.0509C19.9099 18.3388 20.3272 20.0013 20.3272 21.7305C20.3272 22.1746 20.2998 22.6093 20.2473 23.0309C19.9555 23.0098 19.6714 22.9886 19.3948 22.9674C19.445 22.5671 19.4713 22.1529 19.4712 21.7288C19.4712 20.1493 19.0958 18.6416 18.4142 17.4837C17.8549 16.5318 17.3213 15.48 16.8578 14.4315C17.0579 15.3688 17.2785 16.3044 17.5128 17.1536C17.86 18.4124 18.0525 20.0372 18.0525 21.7296C18.0525 22.1063 18.0428 22.4834 18.0237 22.8566C17.7314 22.8316 17.4484 22.8065 17.1744 22.7813C17.1904 22.4466 17.199 22.0965 17.199 21.7313C17.199 20.1133 17.0185 18.5697 16.6902 17.3827C16.4139 16.3839 16.1505 15.2739 15.9256 14.1732L15.8504 13.8012C15.87 14.1869 15.894 14.6752 15.9188 15.2482C15.9778 16.6541 16.0171 18.5295 16.0445 20.4041C16.0487 21.1707 16.0512 21.9372 16.0504 22.6718C15.7507 22.6409 15.4629 22.6098 15.1862 22.5783C15.1857 21.8721 15.1884 21.1377 15.1927 20.4032C15.2201 18.5287 15.2594 16.6541 15.3184 15.2474C15.3432 14.6684 15.368 14.175 15.3886 13.7867L15.3099 14.1732C15.0807 15.2944 14.8241 16.3736 14.5479 17.3793C14.2187 18.5663 14.0382 20.1108 14.0382 21.7288C14.0382 21.9723 14.0421 22.2091 14.0494 22.4391C13.7487 22.3995 13.4627 22.3593 13.19 22.3184C13.1848 22.1227 13.1822 21.9266 13.1822 21.7305C13.1822 20.0372 13.3746 18.4124 13.7227 17.1536C13.9578 16.2975 14.1751 15.3791 14.376 14.4341C13.8997 15.5065 13.3797 16.5353 12.8205 17.4837C12.1389 18.6424 11.7635 20.1493 11.7635 21.7296C11.7635 21.8465 11.7655 21.9627 11.7694 22.078C11.4652 22.0198 11.1798 21.9601 10.9096 21.8988C10.9087 21.8426 10.9083 21.7862 10.9083 21.7296C10.9083 19.9996 11.3256 18.3371 12.0841 17.0492C12.5263 16.2984 12.9376 15.4877 13.3284 14.6521C12.6238 15.6647 11.8575 16.6439 11.0254 17.5546C10.0317 18.6434 9.46259 20.0364 9.40829 21.4995C9.11668 21.4094 8.839 21.3159 8.56735 21.2186C8.68149 19.6455 9.31975 18.1562 10.3935 16.9791C11.288 15.9999 12.1166 14.9472 12.8572 13.85L14.0656 12.0575C13.8048 9.29187 12.5596 7.66018 12.5459 7.64393L13.8817 6.57495C13.91 6.60916 14.1947 6.98886 14.5351 7.6311V4H16.2455C16.2455 4 16.2523 7.18726 16.2455 7.42073C16.3087 7.34622 16.375 7.26603 16.4443 7.18233C16.8775 6.65885 17.4248 5.99758 18.0242 5.72405L19.0889 8.05784C17.8224 8.63509 17.2272 10.5695 17.004 11.8224L18.3766 13.8491ZM8.71937 23.278C9.42677 26.4348 12.2511 28.8003 15.6178 28.8003H15.6186H15.6203C18.2075 28.7991 20.4737 27.4022 21.7052 25.3231C21.3969 25.3056 21.0698 25.2853 20.727 25.2618C20.1832 26.0453 19.4638 26.6985 18.6263 27.1643C19.0673 26.6125 19.4406 25.9426 19.7241 25.1873C19.4397 25.1645 19.1477 25.1397 18.8496 25.1128C18.429 26.1544 17.8201 26.9806 17.1015 27.4653C17.4046 26.8121 17.6367 25.9616 17.7957 25.0107C17.5162 24.9818 17.233 24.9511 16.9473 24.9183C16.694 26.3797 16.2929 27.3336 15.9504 27.7322C15.9658 27.3995 15.9966 26.6119 16.0214 25.5626C16.0271 25.3237 16.0318 25.0714 16.0356 24.808C15.7582 24.7727 15.4794 24.7354 15.2001 24.6961C15.2044 24.9993 15.2099 25.2884 15.2167 25.56C15.2415 26.6102 15.2723 27.3969 15.2877 27.7296C14.9175 27.2989 14.4786 26.2196 14.2319 24.5521C13.9367 24.5056 13.6422 24.4568 13.3495 24.4056C13.5049 25.5998 13.7678 26.6769 14.134 27.4662C13.2088 26.8408 12.4653 25.6502 12.0713 24.1634C11.7595 24.0994 11.4516 24.0324 11.149 23.9621C11.4298 25.2247 11.942 26.3297 12.6092 27.1635C11.2276 26.3959 10.1669 25.1167 9.68628 23.583C9.35226 23.4863 9.02917 23.3847 8.71937 23.278Z" fill="black"/>
</svg>
