<svg width="315" height="76" viewBox="0 0 315 76" fill="none" xmlns="http://www.w3.org/2000/svg">
<path d="M71.9101 51.5C72.1101 52.2 72.2101 52.9 72.1101 53.6C75.5101 55 77.4101 56.4 77.3101 57.5C77.3101 57.6 77.3101 57.6 77.3101 57.6C77.3101 57.7 77.2101 57.8 77.2101 57.9C76.8101 58.5 75.7101 59 74.0101 59.3C73.6101 59.4 73.3101 59.4 72.9101 59.5C71.8101 59.6 70.6101 59.7 69.1101 59.8C68.7101 59.8 68.4101 59.8 68.0101 59.8H67.8101C67.5101 59.8 67.2101 59.8 66.8101 59.8C66.1101 59.8 65.3101 59.8 64.5101 59.8C59.3101 59.7 52.9101 59 46.0101 58C40.4101 57.1 35.1101 56 30.7101 54.9C29.6101 54.6 28.5101 54.3 27.5101 54C20.4101 51.9 16.0101 49.7 16.3101 48C16.5101 46.6 20.2101 45.8 25.9101 45.7C26.0101 45.3 26.1101 44.9 26.2101 44.5C21.5101 44.1 17.2101 44 13.6101 44C10.0101 44 7.01011 44.2 4.71011 44.5C4.41011 44.6 4.11011 44.6 3.81011 44.7C3.51011 44.8 3.21011 44.8 3.01011 44.9C2.71011 45 2.51011 45 2.31011 45.1C0.910115 45.5 0.110115 46.1 0.0101146 46.8C-0.389885 49.7 11.1101 54.1 28.1101 57.8C29.2101 58 30.4101 58.3 31.5101 58.5C36.5101 59.5 41.9101 60.5 47.5101 61.4C48.4101 61.5 49.3101 61.7 50.1101 61.8C51.0101 61.9 51.8101 62.1 52.7101 62.2C53.6101 62.3 54.5101 62.5 55.4101 62.6C56.2101 62.7 57.0101 62.8 57.8101 62.9C58.6101 63 59.5101 63.1 60.3101 63.2C61.0101 63.3 61.7101 63.4 62.4101 63.4C63.6101 63.5 64.7101 63.6 65.9101 63.8C72.7101 64.5 78.7101 64.8 83.7101 64.8C84.7101 64.8 85.7101 64.8 86.7101 64.8C87.1101 64.8 87.6101 64.8 88.0101 64.7C91.7101 64.5 94.5101 64.1 96.0101 63.4C96.3101 63.3 96.5101 63.1 96.7101 63C96.8101 62.9 96.9101 62.8 97.0101 62.7C97.1101 62.6 97.2101 62.5 97.2101 62.4C97.3101 62.3 97.3101 62.2 97.3101 62.1C97.7101 59.2 87.4101 55.2 71.9101 51.5Z" fill="white"/>
<path d="M76 28C78.7614 28 81 25.7614 81 23C81 20.2386 78.7614 18 76 18C73.2386 18 71 20.2386 71 23C71 25.7614 73.2386 28 76 28Z" fill="white"/>
<path fill-rule="evenodd" clip-rule="evenodd" d="M55.8891 29.9541C58.1024 33.2338 60.6955 36.5239 63.3873 39.4758C67.0077 43.4369 68.9974 48.571 69 53.9236C69 55.4398 68.8423 56.9198 68.5425 58.348C67.6461 58.2914 66.77 58.2348 65.9136 58.1781C66.2295 56.8112 66.3965 55.3879 66.3965 53.9262C66.3965 49.2212 64.6462 44.714 61.4653 41.2288C58.9633 38.4875 56.5861 35.4523 54.4664 32.4067C55.6394 34.9165 56.9008 37.4081 58.2454 39.6917C60.5524 43.6086 61.8216 48.6647 61.8216 53.9236C61.8216 55.2743 61.7381 56.5962 61.5784 57.8784C60.6909 57.8143 59.8269 57.75 58.9857 57.6855C59.1385 56.4679 59.2186 55.2082 59.2182 53.9184C59.2182 49.1146 58.0764 44.5293 56.0035 41.0077C54.3025 38.113 52.6796 34.9139 51.2699 31.7253C51.8785 34.5758 52.5496 37.4212 53.2622 40.0038C54.3181 43.8323 54.9033 48.7739 54.9033 53.921C54.9033 55.0666 54.8741 56.2135 54.8159 57.3484C53.9269 57.2724 53.0664 57.1961 52.2328 57.1194C52.2816 56.1014 52.3077 55.0368 52.3077 53.9262C52.3077 49.0054 51.7589 44.3108 50.7602 40.7008C49.9201 37.663 49.119 34.2871 48.435 30.9398L48.2061 29.8084C48.2659 30.9814 48.3388 32.4665 48.4142 34.2091C48.5937 38.4849 48.7133 44.1886 48.7965 49.8897C48.8093 52.2213 48.8168 54.5524 48.8144 56.7865C47.9031 56.6926 47.0279 56.5978 46.1863 56.502C46.1848 54.3542 46.1928 52.1206 46.2061 49.8871C46.2893 44.186 46.4089 38.4849 46.5884 34.2065C46.6638 32.4457 46.7392 30.945 46.8017 29.7642L46.5624 30.9398C45.8654 34.3495 45.0851 37.6318 44.245 40.6904C43.2437 44.3004 42.6949 48.9976 42.6949 53.9184C42.6949 54.6591 42.7065 55.3793 42.7288 56.0789C41.8142 55.9583 40.9446 55.836 40.1152 55.7117C40.0994 55.1166 40.0914 54.5199 40.0914 53.9236C40.0914 48.7739 40.6766 43.8323 41.7352 40.0038C42.4504 37.4003 43.111 34.607 43.7222 31.7331C42.2736 34.9946 40.6922 38.1234 38.9913 41.0077C36.9184 44.5319 35.7766 49.1146 35.7766 53.921C35.7766 54.2766 35.7827 54.6299 35.7948 54.9807C34.8696 54.8035 34.0015 54.622 33.1798 54.4356C33.1771 54.2645 33.1758 54.093 33.1758 53.921C33.1758 48.6595 34.445 43.6034 36.7519 39.6865C38.0966 37.4029 39.3476 34.9373 40.5362 32.3963C38.3931 35.4757 36.0627 38.4537 33.5321 41.2236C30.5099 44.535 28.779 48.7714 28.6139 53.2213C27.727 52.9473 26.8825 52.663 26.0563 52.3671C26.4034 47.5827 28.3446 43.0533 31.61 39.4732C34.3305 36.4953 36.8508 33.2936 39.1031 29.9567L42.7781 24.5053C41.9849 16.0941 38.198 11.1317 38.1564 11.0823L42.219 7.83119C42.3048 7.93522 43.1709 9.09 44.206 11.0432V0H49.4077C49.4077 0 49.4285 9.6934 49.4077 10.4034C49.5999 10.1768 49.8017 9.93296 50.0124 9.67838C51.3301 8.08635 52.9945 6.07522 54.8175 5.24333L58.0556 12.3411C54.2037 14.0967 52.3935 19.9798 51.7147 23.7901L55.8891 29.9541ZM26.5187 58.6302C28.6702 68.2309 37.2599 75.4249 47.4987 75.4249H47.5013H47.5065C55.3748 75.4214 62.2669 71.1729 66.0124 64.8497C65.0748 64.7965 64.0799 64.7347 63.0373 64.6634C61.3835 67.0463 59.1956 69.0328 56.6485 70.4495C57.9898 68.7712 59.125 66.7339 59.9872 64.4369C59.1223 64.3676 58.2344 64.2922 57.3278 64.2102C56.0485 67.3779 54.1965 69.8906 52.0112 71.365C52.933 69.3782 53.6389 66.7916 54.1225 63.8998C53.2724 63.8119 52.4112 63.7184 51.5421 63.6188C50.7718 68.0633 49.552 70.9645 48.5104 72.1764C48.5572 71.1647 48.6509 68.7693 48.7263 65.5781C48.7435 64.8516 48.7578 64.0845 48.7695 63.2834C47.9258 63.1758 47.0778 63.0625 46.2285 62.9431C46.2417 63.8652 46.2583 64.7444 46.2789 65.5703C46.3543 68.7641 46.4479 71.1569 46.4948 72.1686C45.3691 70.8589 44.0342 67.5762 43.2838 62.5049C42.3862 62.3636 41.4905 62.2153 40.6002 62.0595C41.073 65.6913 41.8725 68.9672 42.9862 71.3676C40.1724 69.4657 37.9112 65.8448 36.713 61.323C35.7645 61.1284 34.8281 60.9244 33.908 60.7107C34.762 64.5505 36.3197 67.9112 38.3489 70.4469C34.1471 68.1126 30.921 64.2222 29.4594 59.5579C28.4436 59.2637 27.4609 58.9546 26.5187 58.6302Z" fill="white"/>
<path d="M132.5 35.385C129.28 35.385 126.515 34.9183 124.205 33.985C121.918 33.0283 120.157 31.71 118.92 30.03C117.683 28.35 117.065 26.4133 117.065 24.22C117.065 22.0967 117.683 20.195 118.92 18.515C120.157 16.835 121.918 15.505 124.205 14.525C126.515 13.545 129.28 13.055 132.5 13.055C135.72 13.055 138.485 13.545 140.795 14.525C143.105 15.505 144.867 16.835 146.08 18.515C147.317 20.195 147.935 22.0967 147.935 24.22C147.935 26.4133 147.317 28.35 146.08 30.03C144.867 31.71 143.105 33.0283 140.795 33.985C138.485 34.9183 135.72 35.385 132.5 35.385ZM132.5 33.565C135.207 33.565 137.552 33.18 139.535 32.41C141.518 31.64 143.047 30.555 144.12 29.155C145.217 27.7317 145.765 26.0867 145.765 24.22C145.765 22.4 145.217 20.79 144.12 19.39C143.047 17.99 141.518 16.8817 139.535 16.065C137.552 15.2483 135.207 14.84 132.5 14.84C129.77 14.84 127.413 15.2483 125.43 16.065C123.447 16.8817 121.918 17.99 120.845 19.39C119.795 20.79 119.27 22.4 119.27 24.22C119.27 26.0867 119.795 27.7317 120.845 29.155C121.918 30.555 123.447 31.64 125.43 32.41C127.413 33.18 129.77 33.565 132.5 33.565Z" fill="white"/>
<path d="M160.535 13.195H162.775L186.12 32.13V13.195H188.57V13.44C188.43 13.58 188.337 13.7317 188.29 13.895C188.267 14.0583 188.255 14.3383 188.255 14.735V35H186.61L162.705 15.54V35H160.535V13.195Z" fill="white"/>
<path d="M204.285 35V33.215H214.61V14.98H204.775V13.195H226.755V14.98H216.78V33.25H227.175V35H204.285Z" fill="white"/>
<path d="M258.5 35.385C255.28 35.385 252.515 34.9183 250.205 33.985C247.918 33.0283 246.157 31.71 244.92 30.03C243.683 28.35 243.065 26.4133 243.065 24.22C243.065 22.0967 243.683 20.195 244.92 18.515C246.157 16.835 247.918 15.505 250.205 14.525C252.515 13.545 255.28 13.055 258.5 13.055C261.72 13.055 264.485 13.545 266.795 14.525C269.105 15.505 270.867 16.835 272.08 18.515C273.317 20.195 273.935 22.0967 273.935 24.22C273.935 26.4133 273.317 28.35 272.08 30.03C270.867 31.71 269.105 33.0283 266.795 33.985C264.485 34.9183 261.72 35.385 258.5 35.385ZM258.5 33.565C261.207 33.565 263.552 33.18 265.535 32.41C267.518 31.64 269.047 30.555 270.12 29.155C271.217 27.7317 271.765 26.0867 271.765 24.22C271.765 22.4 271.217 20.79 270.12 19.39C269.047 17.99 267.518 16.8817 265.535 16.065C263.552 15.2483 261.207 14.84 258.5 14.84C255.77 14.84 253.413 15.2483 251.43 16.065C249.447 16.8817 247.918 17.99 246.845 19.39C245.795 20.79 245.27 22.4 245.27 24.22C245.27 26.0867 245.795 27.7317 246.845 29.155C247.918 30.555 249.447 31.64 251.43 32.41C253.413 33.18 255.77 33.565 258.5 33.565Z" fill="white"/>
<path d="M286.535 13.195H288.775L312.12 32.13V13.195H314.57V13.44C314.43 13.58 314.337 13.7317 314.29 13.895C314.267 14.0583 314.255 14.3383 314.255 14.735V35H312.61L288.705 15.54V35H286.535V13.195Z" fill="white"/>
<path d="M119.095 65V43.195H134.6C138.38 43.195 141.238 43.7433 143.175 44.84C145.135 45.9133 146.115 47.3833 146.115 49.25C146.115 50.44 145.73 51.4433 144.96 52.26C144.213 53.0767 143.187 53.7183 141.88 54.185C140.573 54.6283 139.08 54.8967 137.4 54.99L147.48 65H144.505L134.775 55.165H121.265V65H119.095ZM121.265 53.38H134.81C137.913 53.38 140.223 53.0533 141.74 52.4C143.257 51.7233 144.003 50.6733 143.98 49.25C143.957 47.8967 143.187 46.8467 141.67 46.1C140.153 45.3533 137.75 44.98 134.46 44.98H121.265V53.38Z" fill="white"/>
<path d="M162.285 65V63.215H172.61V44.98H162.775V43.195H184.755V44.98H174.78V63.25H185.175V65H162.285Z" fill="white"/>
<path d="M202.535 43.195H204.775L228.12 62.13V43.195H230.57V43.44C230.43 43.58 230.337 43.7317 230.29 43.895C230.267 44.0583 230.255 44.3383 230.255 44.735V65H228.61L204.705 45.54V65H202.535V43.195Z" fill="white"/>
<path d="M260.145 65.35C256.668 65.35 253.67 64.8833 251.15 63.95C248.653 63.0167 246.728 61.7217 245.375 60.065C244.045 58.385 243.38 56.4367 243.38 54.22C243.357 52.4 243.672 50.8367 244.325 49.53C245.002 48.2233 245.912 47.15 247.055 46.31C248.222 45.4467 249.528 44.77 250.975 44.28C252.422 43.7667 253.915 43.4167 255.455 43.23C256.995 43.02 258.488 42.9267 259.935 42.95C261.662 42.9733 263.342 43.1367 264.975 43.44C266.632 43.7433 268.125 44.1633 269.455 44.7C270.808 45.2367 271.893 45.8783 272.71 46.625L271.31 47.885L271.065 48.165L270.89 47.99C270.89 47.78 270.82 47.6283 270.68 47.535C270.563 47.4183 270.353 47.255 270.05 47.045C269.21 46.555 268.218 46.1467 267.075 45.82C265.932 45.47 264.73 45.2017 263.47 45.015C262.233 44.8283 261.032 44.735 259.865 44.735C258.138 44.735 256.423 44.875 254.72 45.155C253.04 45.4117 251.5 45.8783 250.1 46.555C248.723 47.2083 247.615 48.1417 246.775 49.355C245.935 50.545 245.515 52.0733 245.515 53.94C245.515 55.9933 246.133 57.7433 247.37 59.19C248.63 60.6133 250.357 61.6983 252.55 62.445C254.743 63.1917 257.275 63.565 260.145 63.565C261.265 63.565 262.502 63.495 263.855 63.355C265.208 63.1917 266.503 62.9817 267.74 62.725C268.977 62.4683 269.968 62.1767 270.715 61.85L270.68 56.46H260.495V54.71H272.85V63.075C270.773 63.8217 268.685 64.3933 266.585 64.79C264.485 65.1633 262.338 65.35 260.145 65.35Z" fill="white"/>
<path d="M300.465 65.35C297.712 65.35 295.203 65.0933 292.94 64.58C290.677 64.0433 288.693 63.32 286.99 62.41L288.32 60.87L288.565 60.59L288.74 60.765C288.74 60.975 288.81 61.1267 288.95 61.22C289.09 61.29 289.335 61.4183 289.685 61.605C292.438 62.9117 296.207 63.565 300.99 63.565C303.323 63.565 305.353 63.39 307.08 63.04C308.807 62.6667 310.148 62.1767 311.105 61.57C312.062 60.9633 312.54 60.275 312.54 59.505C312.54 58.8983 312.353 58.385 311.98 57.965C311.63 57.545 310.988 57.16 310.055 56.81C309.145 56.4367 307.873 56.0517 306.24 55.655C304.607 55.2583 302.53 54.7917 300.01 54.255C296.977 53.625 294.597 52.995 292.87 52.365C291.167 51.735 289.965 51.07 289.265 50.37C288.565 49.6467 288.215 48.8417 288.215 47.955C288.215 46.3917 289.347 45.1667 291.61 44.28C293.873 43.37 297.07 42.915 301.2 42.915C303.58 42.915 305.797 43.1483 307.85 43.615C309.927 44.0583 311.712 44.7233 313.205 45.61L312.015 47.045L311.77 47.325L311.595 47.15C311.572 46.9633 311.478 46.835 311.315 46.765C311.175 46.695 310.942 46.5783 310.615 46.415C309.332 45.855 307.827 45.435 306.1 45.155C304.373 44.8517 302.483 44.7 300.43 44.7C298.61 44.7 296.93 44.8283 295.39 45.085C293.873 45.3183 292.66 45.6683 291.75 46.135C290.84 46.5783 290.385 47.1383 290.385 47.815C290.385 48.305 290.583 48.76 290.98 49.18C291.377 49.6 292.077 50.02 293.08 50.44C294.083 50.86 295.46 51.3033 297.21 51.77C298.96 52.2133 301.177 52.715 303.86 53.275C306.707 53.8583 308.912 54.4417 310.475 55.025C312.038 55.585 313.123 56.215 313.73 56.915C314.36 57.615 314.675 58.4433 314.675 59.4C314.675 60.4267 314.185 61.395 313.205 62.305C312.248 63.1917 310.72 63.9267 308.62 64.51C306.543 65.07 303.825 65.35 300.465 65.35Z" fill="white"/>
</svg>
