<svg width="321" height="145" viewBox="0 0 321 145" fill="none" xmlns="http://www.w3.org/2000/svg">
<g clip-path="url(#clip0)">
<path d="M-5.95208e-06 126.2V106.4C-0.0151922 106.298 -0.00626722 106.194 0.0260532 106.096C0.0583737 105.998 0.11319 105.909 0.186107 105.836C0.259025 105.763 0.348013 105.708 0.445938 105.676C0.543862 105.644 0.647998 105.635 0.749994 105.65H7.49999C7.60199 105.635 7.70613 105.644 7.80405 105.676C7.90197 105.708 7.99096 105.763 8.06388 105.836C8.1368 105.909 8.19161 105.998 8.22394 106.096C8.25626 106.194 8.26518 106.298 8.24999 106.4V125.75C8.24999 129.95 8.79999 132.823 9.89999 134.37C11 135.917 13.1 136.693 16.2 136.7C19.5 136.7 21.75 135.9 22.95 134.3C24.15 132.7 24.75 129.85 24.75 125.75V95.15C24.805 91.7337 23.8102 88.3828 21.9 85.55C19.3073 81.9612 16.3955 78.6143 13.2 75.55C10.2 72.5167 7.84999 70 6.14999 68C4.35748 65.85 2.89172 63.4475 1.79999 60.87C0.567339 57.9547 -0.0456358 54.8149 -5.95208e-06 51.65V18.15C-5.95208e-06 11.85 1.42333 7.25 4.26999 4.35C7.11666 1.45 11.2433 0 16.65 0C22.15 0 26.25 1.5 28.95 4.5C31.65 7.5 32.9833 12.05 32.95 18.15V37C32.9652 37.102 32.9563 37.2061 32.9239 37.3041C32.8916 37.402 32.8368 37.491 32.7639 37.5639C32.691 37.6368 32.602 37.6916 32.504 37.7239C32.4061 37.7563 32.302 37.7652 32.2 37.75H25.5C25.398 37.7652 25.2939 37.7563 25.1959 37.7239C25.098 37.6916 25.009 37.6368 24.9361 37.5639C24.8632 37.491 24.8084 37.402 24.7761 37.3041C24.7437 37.2061 24.7348 37.102 24.75 37V18.6C24.75 14.4 24.2 11.5267 23.1 9.98C22 8.43333 19.85 7.65667 16.65 7.65C13.45 7.65 11.25 8.45 10.05 10.05C8.84999 11.65 8.24999 14.5 8.24999 18.6V50.45C8.19519 53.97 9.21371 57.4232 11.17 60.35C13.7576 63.9664 16.6987 67.3163 19.95 70.35C23.5751 73.776 26.8419 77.5622 29.7 81.65C31.9655 85.1788 33.1155 89.3082 33 93.5V126.2C33 138.4 27.4 144.5 16.2 144.5C10.7 144.5 6.62666 142.973 3.97999 139.92C1.33333 136.867 0.00666071 132.293 -5.95208e-06 126.2Z" fill="white"/>
<path d="M105.3 143.75C105.315 143.852 105.306 143.956 105.274 144.054C105.242 144.152 105.187 144.241 105.114 144.314C105.041 144.387 104.952 144.442 104.854 144.474C104.756 144.506 104.652 144.515 104.55 144.5H77.55C77.448 144.515 77.3439 144.506 77.2459 144.474C77.148 144.442 77.059 144.387 76.9861 144.314C76.9132 144.241 76.8584 144.152 76.8261 144.054C76.7937 143.956 76.7848 143.852 76.8 143.75V82.92H70.8V143.75C70.8152 143.852 70.8063 143.956 70.7739 144.054C70.7416 144.152 70.6868 144.241 70.6139 144.314C70.541 144.387 70.452 144.442 70.3541 144.474C70.2561 144.506 70.152 144.515 70.05 144.5H43C42.898 144.515 42.7939 144.506 42.6959 144.474C42.598 144.442 42.509 144.387 42.4361 144.314C42.3632 144.241 42.3084 144.152 42.2761 144.054C42.2437 143.956 42.2348 143.852 42.25 143.75V0.750008C42.2348 0.648012 42.2437 0.543876 42.2761 0.445952C42.3084 0.348027 42.3632 0.259039 42.4361 0.186121C42.509 0.113204 42.598 0.0583876 42.6959 0.0260671C42.7939 -0.0062533 42.898 -0.0151783 43 7.9684e-06H70C70.102 -0.0151783 70.2061 -0.0062533 70.304 0.0260671C70.402 0.0583876 70.491 0.113204 70.5639 0.186121C70.6368 0.259039 70.6916 0.348027 70.7239 0.445952C70.7563 0.543876 70.7652 0.648012 70.75 0.750008V61.92H76.75V0.750008C76.7324 0.643049 76.7415 0.533409 76.7763 0.430775C76.8112 0.328141 76.8708 0.235672 76.9499 0.161538C77.0289 0.0874036 77.1251 0.0338864 77.2297 0.00571428C77.3344 -0.0224578 77.4444 -0.0244177 77.55 7.9684e-06H104.55C104.652 -0.0151783 104.756 -0.0062533 104.854 0.0260671C104.952 0.0583876 105.041 0.113204 105.114 0.186121C105.187 0.259039 105.242 0.348027 105.274 0.445952C105.306 0.543876 105.315 0.648012 105.3 0.750008V143.75Z" fill="white"/>
<path d="M146.58 39.15C146.532 39.2475 146.456 39.3283 146.361 39.3819C146.267 39.4354 146.158 39.4591 146.05 39.45C145.861 39.4701 145.671 39.4163 145.52 39.3L134.42 30.75V46.5C134.435 46.602 134.426 46.7061 134.394 46.8041C134.362 46.902 134.307 46.991 134.234 47.0639C134.161 47.1368 134.072 47.1916 133.974 47.224C133.876 47.2563 133.772 47.2652 133.67 47.25H128.67C128.568 47.2652 128.464 47.2563 128.366 47.224C128.268 47.1916 128.179 47.1368 128.106 47.0639C128.033 46.991 127.978 46.902 127.946 46.8041C127.914 46.7061 127.905 46.602 127.92 46.5V30.75L117 39.45C116.933 39.5218 116.851 39.5789 116.761 39.618C116.671 39.6571 116.573 39.6773 116.475 39.6773C116.377 39.6773 116.279 39.6571 116.189 39.618C116.099 39.5789 116.017 39.5218 115.95 39.45L113.1 35.25C113.011 35.0901 112.978 34.9054 113.005 34.7245C113.032 34.5437 113.118 34.3769 113.25 34.25L126 24.3L113.1 14.4C112.968 14.2731 112.882 14.1063 112.855 13.9255C112.828 13.7447 112.861 13.5599 112.95 13.4L115.65 9.35001C116.05 8.95001 116.383 8.90001 116.65 9.20001L128 17.85V1.80001C127.985 1.69802 127.994 1.59388 128.026 1.49596C128.058 1.39803 128.113 1.30904 128.186 1.23613C128.259 1.16321 128.348 1.10839 128.446 1.07607C128.544 1.04375 128.648 1.03483 128.75 1.05001H133.55C133.652 1.03483 133.756 1.04375 133.854 1.07607C133.952 1.10839 134.041 1.16321 134.114 1.23613C134.187 1.30904 134.242 1.39803 134.274 1.49596C134.306 1.59388 134.315 1.69802 134.3 1.80001V17.8L145.68 9.00001C145.98 8.70001 146.313 8.75001 146.68 9.15001L149.08 12.9C149.169 13.0599 149.202 13.2447 149.175 13.4255C149.148 13.6063 149.062 13.7731 148.93 13.9L136.18 24.1L149.08 34.1C149.212 34.2269 149.298 34.3937 149.325 34.5745C149.352 34.7554 149.319 34.9401 149.23 35.1L146.58 39.15Z" fill="white"/>
<path d="M205.3 19.8C205.3 20.6 205.05 21 204.55 21H185.5V79.7H201.75C202.25 79.7 202.5 80.15 202.5 81.05V99.5C202.5 100.3 202.25 100.7 201.75 100.7H185.5V143.7C185.515 143.802 185.506 143.906 185.474 144.004C185.442 144.102 185.387 144.191 185.314 144.264C185.241 144.337 185.152 144.392 185.054 144.424C184.956 144.456 184.852 144.465 184.75 144.45H157.75C157.648 144.465 157.544 144.456 157.446 144.424C157.348 144.392 157.259 144.337 157.186 144.264C157.113 144.191 157.058 144.102 157.026 144.004C156.994 143.906 156.985 143.802 157 143.7V0.749994C156.985 0.647998 156.994 0.543862 157.026 0.445938C157.058 0.348013 157.113 0.259025 157.186 0.186107C157.259 0.11319 157.348 0.0583737 157.446 0.0260532C157.544 -0.00626722 157.648 -0.0151922 157.75 -5.95208e-06H204.55C205.05 -5.95208e-06 205.3 0.449994 205.3 1.34999V19.8Z" fill="white"/>
<path d="M277.19 36.79L281.4 38.09V33.3L277.19 34.6C276.464 34.8323 275.726 35.0259 274.98 35.18L273.25 35.52V35.86C273.637 35.9267 274.213 36.0467 274.98 36.22C275.747 36.3934 276.483 36.5834 277.19 36.79Z" fill="white"/>
<path d="M319.49 1.42613e-05H291.59V17.87C291.593 17.8931 291.591 17.9167 291.584 17.9388C291.577 17.961 291.564 17.9811 291.548 17.9976C291.531 18.0141 291.511 18.0266 291.489 18.0339C291.467 18.0413 291.443 18.0434 291.42 18.04H267.42C267.397 18.0434 267.373 18.0413 267.351 18.0339C267.329 18.0266 267.309 18.0141 267.292 17.9976C267.276 17.9811 267.263 17.961 267.256 17.9388C267.249 17.9167 267.247 17.8931 267.25 17.87V9.32001C267.247 9.29691 267.249 9.27334 267.256 9.25119C267.263 9.22903 267.276 9.2089 267.292 9.19239C267.309 9.17588 267.329 9.16346 267.351 9.1561C267.373 9.14874 267.397 9.14666 267.42 9.15001H284.7V1.42613e-05H213C212.898 -0.015172 212.794 -0.00624701 212.696 0.0260734C212.598 0.0583939 212.509 0.113211 212.436 0.186128C212.363 0.259045 212.308 0.348034 212.276 0.445958C212.244 0.543883 212.235 0.648018 212.25 0.750014V20.27C212.238 20.3705 212.25 20.4723 212.284 20.5676C212.317 20.6629 212.373 20.7492 212.445 20.8198C212.518 20.8903 212.605 20.9433 212.702 20.9745C212.798 21.0058 212.9 21.0145 213 21H227.25V143.75C227.235 143.852 227.244 143.956 227.276 144.054C227.308 144.152 227.363 144.241 227.436 144.314C227.509 144.387 227.598 144.442 227.696 144.474C227.794 144.506 227.898 144.515 228 144.5H304.5C304.602 144.515 304.706 144.506 304.804 144.474C304.902 144.442 304.991 144.387 305.064 144.314C305.137 144.241 305.192 144.152 305.224 144.054C305.256 143.956 305.265 143.852 305.25 143.75V21H319.5C319.602 21.0152 319.706 21.0063 319.804 20.974C319.902 20.9416 319.991 20.8868 320.064 20.8139C320.137 20.741 320.192 20.652 320.224 20.5541C320.256 20.4561 320.265 20.352 320.25 20.25V0.750014C320.266 0.647054 320.257 0.541866 320.224 0.443048C320.191 0.344229 320.135 0.254585 320.061 0.18144C319.987 0.108296 319.897 0.0537278 319.797 0.0221959C319.698 -0.00933609 319.593 -0.016937 319.49 1.42613e-05V1.42613e-05ZM267.3 29.5C267.3 29.43 267.36 29.37 267.47 29.33L291.47 20.95C291.486 20.9353 291.508 20.9271 291.53 20.9271C291.552 20.9271 291.573 20.9353 291.59 20.95C291.622 20.9899 291.639 21.0391 291.64 21.09V30C291.64 30.07 291.58 30.13 291.47 30.17L287.6 31.37V40L291.47 41.16C291.58 41.16 291.64 41.26 291.64 41.33V50.23C291.639 50.2809 291.622 50.3302 291.59 50.37C291.573 50.3848 291.552 50.3929 291.53 50.3929C291.508 50.3929 291.486 50.3848 291.47 50.37L267.47 41.99C267.36 41.99 267.3 41.89 267.3 41.82V29.5ZM267.3 68.33C267.3 68.26 267.36 68.2 267.47 68.16L274.07 66.16C275.87 65.5867 278.01 65.0034 280.49 64.41C282.173 63.9443 283.898 63.6461 285.64 63.52V63.18C283.875 63.052 282.127 62.754 280.42 62.29C277.9 61.6967 275.763 61.1267 274.01 60.58L267.47 58.58C267.36 58.58 267.3 58.48 267.3 58.41V49.51C267.301 49.4591 267.318 49.4099 267.35 49.37C267.366 49.3553 267.388 49.3471 267.41 49.3471C267.432 49.3471 267.453 49.3553 267.47 49.37L291.47 57.24C291.58 57.24 291.64 57.34 291.64 57.41V69.41C291.64 69.48 291.58 69.54 291.47 69.58L267.47 77.45C267.453 77.4648 267.432 77.4729 267.41 77.4729C267.388 77.4729 267.366 77.4648 267.35 77.45C267.318 77.4102 267.301 77.3609 267.3 77.31V68.33ZM291.42 94.12C291.443 94.1167 291.467 94.1187 291.489 94.1261C291.511 94.1335 291.531 94.1459 291.548 94.1624C291.564 94.1789 291.577 94.199 291.584 94.2212C291.591 94.2433 291.593 94.2669 291.59 94.29V98.84C291.593 98.8631 291.591 98.8867 291.584 98.9088C291.577 98.931 291.564 98.9511 291.548 98.9676C291.531 98.9841 291.511 98.9966 291.489 99.0039C291.467 99.0113 291.443 99.0134 291.42 99.01H271.37V105.13C271.37 105.27 271.29 105.33 271.13 105.33H267.67C267.51 105.33 267.43 105.26 267.43 105.13V88C267.43 87.89 267.51 87.83 267.67 87.83H271.13C271.29 87.83 271.37 87.89 271.37 88V94.12H291.42ZM291.42 84.95H267.6C267.577 84.9534 267.553 84.9513 267.531 84.9439C267.509 84.9366 267.489 84.9241 267.472 84.9076C267.456 84.8911 267.443 84.871 267.436 84.8488C267.429 84.8267 267.427 84.8031 267.43 84.78V80.27C267.427 80.2469 267.429 80.2233 267.436 80.2012C267.443 80.179 267.456 80.1589 267.472 80.1424C267.489 80.1259 267.509 80.1135 267.531 80.1061C267.553 80.0987 267.577 80.0967 267.6 80.1H291.42C291.443 80.0967 291.467 80.0987 291.489 80.1061C291.511 80.1135 291.531 80.1259 291.548 80.1424C291.564 80.1589 291.577 80.179 291.584 80.2012C291.591 80.2233 291.593 80.2469 291.59 80.27V84.79C291.602 84.8155 291.607 84.8439 291.603 84.8719C291.6 84.9 291.589 84.9264 291.571 84.9484C291.553 84.9703 291.53 84.9868 291.503 84.9959C291.476 85.0051 291.447 85.0065 291.42 85V84.95ZM291.59 131.65C291.593 131.673 291.591 131.697 291.584 131.719C291.577 131.741 291.564 131.761 291.548 131.778C291.531 131.794 291.511 131.807 291.489 131.814C291.467 131.821 291.443 131.823 291.42 131.82H267.71C267.687 131.823 267.663 131.821 267.641 131.814C267.619 131.807 267.599 131.794 267.582 131.778C267.566 131.761 267.553 131.741 267.546 131.719C267.539 131.697 267.537 131.673 267.54 131.65V125.6C267.537 125.577 267.539 125.553 267.546 125.531C267.553 125.509 267.566 125.489 267.582 125.472C267.599 125.456 267.619 125.443 267.641 125.436C267.663 125.429 267.687 125.427 267.71 125.43H269.15C269.173 125.427 269.197 125.429 269.219 125.436C269.241 125.443 269.261 125.456 269.278 125.472C269.294 125.489 269.307 125.509 269.314 125.531C269.321 125.553 269.323 125.577 269.32 125.6V129.95H278.32V126.29C278.317 126.267 278.319 126.243 278.326 126.221C278.333 126.199 278.346 126.179 278.362 126.162C278.379 126.146 278.399 126.133 278.421 126.126C278.443 126.119 278.467 126.117 278.49 126.12H280C280.023 126.117 280.047 126.119 280.069 126.126C280.091 126.133 280.111 126.146 280.128 126.162C280.144 126.179 280.157 126.199 280.164 126.221C280.171 126.243 280.173 126.267 280.17 126.29V129.95H291.46C291.483 129.947 291.507 129.949 291.529 129.956C291.551 129.963 291.571 129.976 291.588 129.992C291.604 130.009 291.617 130.029 291.624 130.051C291.631 130.073 291.633 130.097 291.63 130.12L291.59 131.65ZM291.59 122.82C291.593 122.843 291.591 122.867 291.584 122.889C291.577 122.911 291.564 122.931 291.548 122.948C291.531 122.964 291.511 122.977 291.489 122.984C291.467 122.991 291.443 122.993 291.42 122.99H267.71C267.687 122.993 267.663 122.991 267.641 122.984C267.619 122.977 267.599 122.964 267.582 122.948C267.566 122.931 267.553 122.911 267.546 122.889C267.539 122.867 267.537 122.843 267.54 122.82V116.76C267.537 116.737 267.539 116.713 267.546 116.691C267.553 116.669 267.566 116.649 267.582 116.632C267.599 116.616 267.619 116.603 267.641 116.596C267.663 116.589 267.687 116.587 267.71 116.59H269.15C269.173 116.587 269.197 116.589 269.219 116.596C269.241 116.603 269.261 116.616 269.278 116.632C269.294 116.649 269.307 116.669 269.314 116.691C269.321 116.713 269.323 116.737 269.32 116.76V121.11H278.32V117.45C278.317 117.427 278.319 117.403 278.326 117.381C278.333 117.359 278.346 117.339 278.362 117.322C278.379 117.306 278.399 117.293 278.421 117.286C278.443 117.279 278.467 117.277 278.49 117.28H280C280.023 117.277 280.047 117.279 280.069 117.286C280.091 117.293 280.111 117.306 280.128 117.322C280.144 117.339 280.157 117.359 280.164 117.381C280.171 117.403 280.173 117.427 280.17 117.45V121.11H289.85V116.76C289.847 116.737 289.849 116.713 289.856 116.691C289.863 116.669 289.876 116.649 289.892 116.632C289.909 116.616 289.929 116.603 289.951 116.596C289.973 116.589 289.997 116.587 290.02 116.59H291.46C291.483 116.587 291.507 116.589 291.529 116.596C291.551 116.603 291.571 116.616 291.588 116.632C291.604 116.649 291.617 116.669 291.624 116.691C291.631 116.713 291.633 116.737 291.63 116.76L291.59 122.82ZM290.82 113.53C289.92 114.2 288.809 114.523 287.69 114.44H283.17C283.147 114.443 283.123 114.441 283.101 114.434C283.079 114.427 283.059 114.414 283.042 114.398C283.026 114.381 283.013 114.361 283.006 114.339C282.999 114.317 282.997 114.293 283 114.27V112.73C282.997 112.707 282.999 112.683 283.006 112.661C283.013 112.639 283.026 112.619 283.042 112.602C283.059 112.586 283.079 112.573 283.101 112.566C283.123 112.559 283.147 112.557 283.17 112.56H287.58C288.269 112.627 288.963 112.495 289.58 112.18C289.778 112 289.929 111.776 290.021 111.525C290.114 111.274 290.144 111.005 290.11 110.74C290.145 110.458 290.113 110.172 290.018 109.905C289.922 109.637 289.765 109.396 289.56 109.2C288.966 108.871 288.286 108.728 287.61 108.79H284.46C283.681 108.777 282.916 109.004 282.27 109.44C281.447 110.036 280.681 110.705 279.98 111.44C279.313 112.107 278.743 112.643 278.27 113.05C277.779 113.461 277.229 113.798 276.64 114.05C275.976 114.331 275.261 114.47 274.54 114.46H271.46C270.319 114.553 269.188 114.194 268.31 113.46C267.96 113.083 267.691 112.638 267.519 112.153C267.347 111.668 267.276 111.153 267.31 110.64C267.265 110.127 267.331 109.611 267.503 109.126C267.676 108.641 267.951 108.199 268.31 107.83C269.198 107.151 270.305 106.823 271.42 106.91H275.73C275.753 106.907 275.777 106.909 275.799 106.916C275.821 106.923 275.841 106.936 275.858 106.952C275.874 106.969 275.887 106.989 275.894 107.011C275.901 107.033 275.903 107.057 275.9 107.08V108.62C275.903 108.643 275.901 108.667 275.894 108.689C275.887 108.711 275.874 108.731 275.858 108.748C275.841 108.764 275.821 108.777 275.799 108.784C275.777 108.791 275.753 108.793 275.73 108.79H271.52C270.831 108.723 270.137 108.855 269.52 109.17C269.321 109.355 269.168 109.585 269.076 109.841C268.984 110.096 268.954 110.37 268.99 110.64C268.957 110.917 268.989 111.198 269.085 111.461C269.18 111.723 269.336 111.959 269.54 112.15C270.134 112.478 270.814 112.621 271.49 112.56H274.19C274.994 112.569 275.781 112.335 276.45 111.89C277.278 111.301 278.045 110.631 278.74 109.89C279.519 109.064 280.38 108.321 281.31 107.67C282.114 107.155 283.055 106.893 284.01 106.92H287.64C290.427 106.92 291.82 108.197 291.82 110.75C291.868 111.26 291.803 111.774 291.63 112.256C291.457 112.738 291.181 113.176 290.82 113.54V113.53Z" fill="white"/>
</g>
<defs>
<clipPath id="clip0">
<rect width="320.24" height="144.5" fill="white"/>
</clipPath>
</defs>
</svg>
